<svg xmlns="http://www.w3.org/2000/svg" viewBox="0 0 45 45"><title>cn</title><circle cx="22.5" cy="22.5" r="22.5" fill="#ed5565"/><path d="M26.3,15.4c-0.3.2-.4,0.1-0.3-0.2L26.3,14a1.21,1.21,0,0,0-.3-1l-0.9-.8c-0.3-.2-0.2-0.4.1-0.4h1.2a1,1,0,0,0,.8-0.6l0.4-1.3c0.1-.3.3-0.3,0.4,0l0.5,1.3a1,1,0,0,0,.8.6h1.3c0.3,0,.4.2,0.1,0.4l-1,.8a1.21,1.21,0,0,0-.3,1l0.3,1.1c0.1,0.3-.1.4-0.3,0.3l-1-.6a0.91,0.91,0,0,0-1,0Z" fill="#f6bb42"/><path d="M26.3,33.1c-0.3.2-.4,0.1-0.3-0.2l0.3-1.2a1.21,1.21,0,0,0-.3-1l-0.9-.8c-0.3-.2-0.2-0.4.1-0.4h1.2a1,1,0,0,0,.8-0.6l0.4-1.3c0.1-.3.3-0.3,0.4,0l0.5,1.3a1,1,0,0,0,.8.6h1.3c0.3,0,.4.2,0.1,0.4l-1,.8a1.21,1.21,0,0,0-.3,1l0.3,1.1c0.1,0.3-.1.4-0.3,0.3l-1-.6a0.91,0.91,0,0,0-1,0Z" fill="#f6bb42"/><path d="M33,28.1c-0.3.2-.4,0.1-0.3-0.2L33,26.7a1.21,1.21,0,0,0-.3-1l-0.9-.8c-0.2-.2-0.2-0.4.1-0.4h1.2a1,1,0,0,0,.8-0.6l0.4-1.3c0.1-.3.3-0.3,0.4,0l0.5,1.3a1,1,0,0,0,.8.6h1.3c0.3,0,.4.2,0.1,0.4l-1,.8a1.21,1.21,0,0,0-.3,1l0.3,1.1c0.1,0.3-.1.4-0.3,0.3l-1-.6a0.91,0.91,0,0,0-1,0Z" fill="#f6bb42"/><path d="M33,21.3c-0.3.2-.4,0.1-0.3-0.2L33,19.9a1.21,1.21,0,0,0-.3-1l-0.9-.8c-0.2-.2-0.2-0.4.1-0.4h1.2a1,1,0,0,0,.8-0.6l0.4-1.3c0.1-.3.3-0.3,0.4,0l0.5,1.3a1,1,0,0,0,.8.6h1.3c0.3,0,.4.2,0.1,0.4l-1,.8a1.21,1.21,0,0,0-.3,1L36.4,21c0.1,0.3-.1.4-0.3,0.3l-1-.6a0.91,0.91,0,0,0-1,0Z" fill="#f6bb42"/><path d="M16.6,14.3l1.7,5a0.66,0.66,0,0,0,.5.4h5.4a0.49,0.49,0,0,1,.3.9l-4.3,3.1a0.48,0.48,0,0,0-.2.6l1.7,5a0.52,0.52,0,0,1-.8.6l-4.4-3.1a0.64,0.64,0,0,0-.6,0l-4.4,3.1a0.52,0.52,0,0,1-.8-0.6l1.7-5a0.52,0.52,0,0,0-.2-0.6L7.9,20.6a0.49,0.49,0,0,1,.3-0.9h5.4a0.51,0.51,0,0,0,.5-0.4l1.7-5C15.7,13.8,16.4,13.8,16.6,14.3Z" fill="#f6bb42"/></svg>