<svg xmlns="http://www.w3.org/2000/svg" xmlns:xlink="http://www.w3.org/1999/xlink" viewBox="0 0 43.7 45"><defs><clipPath id="a"><ellipse cx="22.3" cy="22.5" rx="21.7" ry="22" fill="none"/></clipPath></defs><title>us</title><g clip-path="url(#a)"><ellipse cx="22" cy="23" rx="21.7" ry="22" fill="#fff"/></g><g clip-path="url(#a)"><rect x="0.3" y="16.2" width="43.4" height="7.3" fill="#ed5565"/></g><g clip-path="url(#a)"><rect x="0.3" y="32.5" width="43.4" height="7.2" fill="#ed5565"/></g><g clip-path="url(#a)"><rect x="0.3" width="43.4" height="7.2" fill="#ed5565"/></g><g clip-path="url(#a)"><rect y="0.5" width="23.8" height="23" fill="#4a89dc"/></g><g clip-path="url(#a)"><path d="M17.7,9.2a0.49,0.49,0,0,0-.3-0.9H12.5A0.55,0.55,0,0,1,12,8L10.5,3.4a0.41,0.41,0,0,0-.8.1L8.2,8.1a0.85,0.85,0,0,1-.5.3H2.8a0.43,0.43,0,0,0-.2.8L6.5,12a0.48,0.48,0,0,1,.2.5L5.2,17.1a0.47,0.47,0,0,0,.7.6l3.9-2.8a0.64,0.64,0,0,1,.6,0l3.9,2.8a0.44,0.44,0,0,0,.7-0.5l-1.5-4.6a0.37,0.37,0,0,1,.2-0.5Z" fill="#fff"/></g></svg>