<?xml version="1.0" encoding="utf-8"?>
<!-- Generator: Adobe Illustrator 19.1.0, SVG Export Plug-In . SVG Version: 6.00 Build 0)  -->
<svg version="1.1" id="圖層_1" xmlns="http://www.w3.org/2000/svg" xmlns:xlink="http://www.w3.org/1999/xlink" x="0px" y="0px"
	 viewBox="-133 135 32 32" style="enable-background:new -133 135 32 32;" xml:space="preserve">
<style type="text/css">
	.st0{fill:#767676;}
</style>
<g>
	<path class="st0" d="M-103.7,138.1h-26.7c-1.9,0-2.7,0.8-2.7,2.7v20.3c0,1.9,0.8,2.7,2.7,2.7h26.7c1.9,0,2.7-0.8,2.7-2.7v-20.3
		C-101,139-101.8,138.1-103.7,138.1z M-108.5,141.1c0.8,0,1.4,0.6,1.4,1.4s-0.6,1.4-1.4,1.4s-1.4-0.6-1.4-1.4
		S-109.3,141.1-108.5,141.1z M-112,141.1c0.8,0,1.4,0.6,1.4,1.4s-0.6,1.4-1.4,1.4s-1.4-0.6-1.4-1.4S-112.8,141.1-112,141.1z
		 M-103.7,162.1h-26.6v-16h26.6C-103.7,146.1-103.7,162.1-103.7,162.1z M-105.1,143.8c-0.8,0-1.4-0.6-1.4-1.4s0.6-1.4,1.4-1.4
		s1.4,0.6,1.4,1.4S-104.3,143.8-105.1,143.8z"/>
	<g>
		<path class="st0" d="M-125.9,151.5c0,0.8,0.2,1.4,0.7,1.8c0.4,0.4,1.1,0.7,2.1,0.9v3.7c-0.7-0.1-1.2-0.4-1.5-0.9
			c-0.2-0.3-0.2-0.7-0.3-1.4h-1.2c0,0.8,0.1,1.4,0.4,1.8c0.5,0.8,1.3,1.3,2.6,1.4v1.2h0.7v-1.2c0.8-0.1,1.4-0.3,1.8-0.6
			c0.8-0.5,1.1-1.4,1.1-2.5c0-0.8-0.3-1.5-0.9-1.9c-0.4-0.3-1.1-0.5-2.1-0.8v-3.3c0.6,0,1,0.2,1.2,0.7c0.1,0.2,0.2,0.5,0.3,0.8h1.2
			c0-0.7-0.3-1.3-0.7-1.7c-0.5-0.4-1.1-0.7-2-0.7v-1h-0.7v1c-0.9,0-1.5,0.3-2,0.8C-125.7,150.1-125.9,150.8-125.9,151.5z
			 M-124.7,151.4c0-0.4,0.1-0.7,0.3-1.1c0.2-0.3,0.6-0.5,1.2-0.5v3.2c-0.5-0.1-0.8-0.3-1.1-0.5
			C-124.6,152.1-124.7,151.8-124.7,151.4z M-122.5,157.9v-3.5c0.5,0.2,0.9,0.3,1.1,0.5c0.4,0.3,0.6,0.7,0.6,1.3
			c0,0.4-0.1,0.7-0.2,0.9C-121.2,157.6-121.7,157.9-122.5,157.9z"/>
	</g>
	<path class="st0" d="M-117.1,153.8c0-0.6,0.5-1.1,1.1-1.1s1.1,0.5,1.1,1.1s-0.5,1.1-1.1,1.1S-117.1,154.4-117.1,153.8z"/>
	<path class="st0" d="M-113.4,153.8c0-0.6,0.5-1.1,1.1-1.1s1.1,0.5,1.1,1.1s-0.5,1.1-1.1,1.1S-113.4,154.4-113.4,153.8z"/>
	<path class="st0" d="M-110.2,153.8c0-0.6,0.5-1.1,1.1-1.1s1.1,0.5,1.1,1.1s-0.5,1.1-1.1,1.1S-110.2,154.4-110.2,153.8z"/>
</g>
</svg>
