<?xml version="1.0" encoding="utf-8"?>
<!-- Generator: Adobe Illustrator 19.1.0, SVG Export Plug-In . SVG Version: 6.00 Build 0)  -->
<svg version="1.1" id="圖層_1" xmlns="http://www.w3.org/2000/svg" xmlns:xlink="http://www.w3.org/1999/xlink" x="0px" y="0px"
	 viewBox="-414 539.9 32 31.9" style="enable-background:new -414 539.9 32 31.9;" xml:space="preserve">
<style type="text/css">
	.st0{fill:#FFFFFF;}
</style>
<g>
	<path class="st0" d="M-399.4,539.9c0.9,0,1.7,0,2.6,0c0.1,0,0.2,0.1,0.4,0.1c6.9,0.7,12.4,5.6,14,12.3c0.2,0.8,0.3,1.5,0.4,2.3
		c0,0.9,0,1.7,0,2.6c0,0.1-0.1,0.2-0.1,0.4c-0.7,6.5-5.3,11.9-11.5,13.6c-1,0.3-2.1,0.4-3.1,0.6c-0.9,0-1.7,0-2.6,0
		c-0.1,0-0.3-0.1-0.4-0.1c-6.7-0.7-12.4-5.7-13.9-12.2c-0.2-0.8-0.3-1.5-0.4-2.3c0-0.9,0-1.7,0-2.6c0-0.1,0.1-0.3,0.1-0.4
		c0.8-6.8,5.7-12.4,12.3-13.9C-400.9,540.1-400.1,540-399.4,539.9z M-397,568.4c6.6-0.4,11.4-6.3,11.4-11.4c-1.6-0.2-2-0.4-1.9-1
		c0.1-1.3,1.2-1,2-1.1c-0.3-6.1-5.8-11.2-11.5-11.4c0,0.3,0,0.5,0,0.8c0,0.7-0.4,1.1-1,1.1c-0.6,0-1-0.4-1.1-1.1c0-0.3,0-0.6,0-0.8
		c-6.8,0.4-11.4,6.5-11.4,11.4c1.3,0.1,1.8,0.4,1.8,1.1c-0.1,1.1-1,1.1-1.8,1.1c0.3,3.4,1.8,6.2,4.3,8.5c2.1,1.8,4.4,2.8,7.2,3
		c0.1-1.6,0.4-2,1.1-2C-396.8,566.5-397.1,567.5-397,568.4z"/>
	<path class="st0" d="M-399.7,561.1c0-0.9,0-1.9,0-2.8c0-0.2-0.1-0.4-0.2-0.5c-1.2-1.2-1.1-2.9,0.2-4c0.2-0.1,0.3-0.4,0.3-0.7
		c0.1-1.8,0.2-3.6,0.3-5.4c0-0.7,0.4-1.1,1-1.2c0.7,0,1.1,0.3,1.1,1.1c0.1,1.3,0.1,2.7,0.1,4c0,0.3,0,0.7,0,1c0,0.6,0.1,1.2,0.6,1.7
		c0.9,0.9,0.7,2.3-0.1,3.2c-0.2,0.2-0.3,0.5-0.3,0.8c-0.1,1.7,0,3.5-0.2,5.2c-0.1,0.7-0.4,1.4-0.8,2c-0.2,0.4-0.6,0.4-1,0.1
		c-0.6-0.5-1.1-1.1-1.1-2c0-0.8,0-1.7,0-2.5C-399.6,561.1-399.7,561.1-399.7,561.1z"/>
</g>
</svg>
