<?xml version="1.0" encoding="utf-8"?>
<!-- Generator: Adobe Illustrator 19.1.0, SVG Export Plug-In . SVG Version: 6.00 Build 0)  -->
<svg version="1.1" id="圖層_1" xmlns="http://www.w3.org/2000/svg" xmlns:xlink="http://www.w3.org/1999/xlink" x="0px" y="0px"
	 viewBox="-133 135 32 32" style="enable-background:new -133 135 32 32;" xml:space="preserve">
<style type="text/css">
	.st0{fill:#F1F1F1;}
	.st1{fill:#CBCBCB;}
</style>
<path class="st0" d="M-120.5,142.9c1.6-1.9,3.3-3.4,5.3-4.3l0.6,1.3c-1.5,0.9-2.9,2-4,3.3c-1.1,1.3-1.6,2.7-1.6,4
	c0,0.3,0.1,0.5,0.2,0.6c0.2,0.1,0.4,0.2,0.6,0.2c1.4-0.2,2.2-0.2,2.3-0.2c0.7,0,1.5,0.3,2.4,0.8c0.9,0.5,1.3,1.4,1.3,2.7
	c0,1.1-0.4,2-1.1,2.8c-0.7,0.8-1.7,1.1-3,1.1c-1.5,0-2.8-0.6-3.9-1.8c-1.1-1.2-1.6-2.7-1.6-4.5
	C-122.8,146.9-122.1,144.9-120.5,142.9 M-108.1,142.8c1.6-1.9,3.4-3.3,5.3-4.2l0.6,1.3c-1.5,0.9-2.9,2-4,3.3c-1.1,1.3-1.6,2.6-1.6,4
	c0,0.2,0.1,0.4,0.2,0.6c0.1,0.2,0.4,0.2,0.7,0.2c1.4-0.2,2.2-0.2,2.3-0.2c0.8,0,1.6,0.3,2.4,0.9c0.8,0.6,1.2,1.5,1.2,2.6
	c0,0.9-0.3,1.8-0.9,2.6c-0.6,0.9-1.7,1.3-3.2,1.3c-1.6,0-2.9-0.6-3.9-1.8c-1-1.2-1.5-2.6-1.5-4.2
	C-110.6,146.9-109.8,144.8-108.1,142.8"/>
<polygon class="st1" points="-114.6,144 -131.8,144 -131.8,144 -131.9,144 -131.9,161.2 -131.4,161.2 -131.4,144.5 -114.6,144.5 "/>
</svg>
