<?xml version="1.0" encoding="utf-8"?>
<!-- Generator: Adobe Illustrator 19.1.0, SVG Export Plug-In . SVG Version: 6.00 Build 0)  -->
<svg version="1.1" id="圖層_1" xmlns="http://www.w3.org/2000/svg" xmlns:xlink="http://www.w3.org/1999/xlink" x="0px" y="0px"
	 viewBox="-133 135 32 32" style="enable-background:new -133 135 32 32;" xml:space="preserve">
<style type="text/css">
	.st0{fill:#767676;}
</style>
<g id="Gmzj4v.tif">
	<g>
		<path class="st0" d="M-132.8,163.1c0.6-0.2,1.2-0.5,1.8-0.5c9.3,0,18.7,0,28,0c0.6,0,1.2,0.3,1.8,0.5c0,0.7,0,1.3,0,2
			c-10.5,0-21.1,0-31.6,0C-132.8,164.4-132.8,163.8-132.8,163.1z"/>
		<path class="st0" d="M-111.3,143.6c0.4,4.8-3.3,7.1-6.4,6.7c-2.6-0.3-4.7-2.4-4.9-5c-0.1-0.9-0.1-1.8-0.1-2.6
			c0.1-3.4,2.4-5.8,5.7-5.8c3.3,0,5.7,2.4,5.7,5.9C-111.3,143.1-111.3,143.4-111.3,143.6z"/>
		<path class="st0" d="M-117.7,153.9c-0.6,1.2-1.1,2.4-1.8,3.4c-0.9,1.4-1,2.4,0.5,3.4c0.3,0.2,0.6,0.6,1,1.1c-3.1,0-6,0.1-8.9-0.1
			c-0.6,0-1.2-1-1.8-1.6c-0.1-0.1-0.1-0.4-0.1-0.6c-0.3-6.1-1.8-4.4,4-6.6c0.7-0.2,1.3-0.5,2-0.7
			C-119.9,151.4-119.9,151.4-117.7,153.9z"/>
		<path class="st0" d="M-115.9,161.9c3.1-2.3,1.6-4.5,0.3-6.7c-0.2-0.4-0.4-0.8-1.1-1.7c0.7-0.4,1.4-0.9,2.1-1.3
			c0.5-0.2,1.2-0.5,1.7-0.3c2.3,0.7,4.5,1.6,6.8,2.4c0.9,0.3,1.2,0.9,1.1,1.7c-0.1,1.3-0.2,2.6-0.4,3.9c-0.1,1.2-0.8,2-2,2.1
			C-110.2,162-113,161.9-115.9,161.9z"/>
	</g>
</g>
</svg>
