<?xml version="1.0" encoding="utf-8"?>
<!-- Generator: Adobe Illustrator 19.1.0, SVG Export Plug-In . SVG Version: 6.00 Build 0)  -->
<svg version="1.1" id="圖層_1" xmlns="http://www.w3.org/2000/svg" xmlns:xlink="http://www.w3.org/1999/xlink" x="0px" y="0px"
	 viewBox="-133 135 32 32" style="enable-background:new -133 135 32 32;" xml:space="preserve">
<style type="text/css">
	.st0{fill:#767676;}
</style>
<g id="kX2Fq4.tif">
	<g>
		<path class="st0" d="M-101,162.4c-2,0.3-3.9,0.7-6.1,1.1c0-1.2,0-1.9,0-2.7c1.1-0.1,2.2-0.1,3.4-0.2c0-0.6,0.1-1.1,0.1-1.6
			c0-6.3,0-12.6,0-18.9c0-1.7-0.5-2.5-2.4-2.5c-7.4,0.1-14.7,0.1-22.1,0c-1.7,0-2.3,0.5-2.3,2.3c0.1,6.9,0,13.7,0,20.7
			c1.2,0.1,2.3,0.1,3.5,0.2c0,0.8,0,1.4,0,2.6c-2.1-0.3-4.1-0.7-6.1-1c0-8.1,0-16.3,0-24.4c1.2-2.4,3.2-3.1,5.8-3
			c6.6,0.1,13.2,0.2,19.8,0c2.8-0.1,4.9,0.6,6.2,3.1C-101,146.1-101,154.2-101,162.4z"/>
		<path class="st0" d="M-124.6,166.9c-0.3-0.8-0.7-1.6-0.8-2.4c-0.1-2,0-4.1,0-6.2c-0.9-0.1-1.5-0.1-2.3-0.2c0-1.5,0-3,0-4.6
			c7.2,0,14.4,0,21.7,0c0,1.5,0,2.9,0,4.6c-0.7,0.1-1.4,0.2-2.3,0.3c0,2.1,0.1,4.1,0,6.2c0,0.8-0.5,1.6-0.8,2.4
			C-114.4,166.9-119.5,166.9-124.6,166.9z M-114.5,164.2c4.3-2.1,3.9-5.2,3.5-8.3c-1.3-0.3-2.1-0.3-2.8,1.2c-0.5,1-2,2.1-3.1,2.1
			s-2.7-1.1-3.1-2.1c-0.8-1.6-1.6-1.5-3-1.1c0,1.6,0,3.2,0,4.7c0,0.4,0.1,0.9,0.4,1.1c0.8,0.8,1.7,1.5,2.8,2.4
			C-118,164.2-115.9,164.2-114.5,164.2z"/>
		<path class="st0" d="M-124.1,140.1c4.9,0,9.6,0,14.3,0c0,3.2,0,6.3,0,9.5c-4.8,0-9.5,0-14.3,0
			C-124.1,146.4-124.1,143.3-124.1,140.1z"/>
		<path class="st0" d="M-125.5,143.6c0,0.9,0,1.6,0,2.3c-0.8,0-1.5,0-2.3,0c0-0.8,0-1.4,0-2.2C-127.1,143.7-126.4,143.6-125.5,143.6
			z"/>
		<path class="st0" d="M-106.1,145.9c-0.8,0-1.5,0-2.3,0c0-0.8,0-1.4,0-2.2c0.8,0,1.5,0,2.3,0C-106.1,144.5-106.1,145.1-106.1,145.9
			z"/>
		<path class="st0" d="M-125.6,142.3c-0.8,0-1.5,0-2.2,0c0-0.7,0-1.4,0-2.2c0.7,0,1.4,0,2.2,0C-125.6,140.8-125.6,141.5-125.6,142.3
			z"/>
		<path class="st0" d="M-108.4,142.3c0-0.8,0-1.4,0-2.2c0.7,0,1.4-0.1,2.3-0.1c0,0.8,0,1.5,0,2.3
			C-106.9,142.3-107.6,142.3-108.4,142.3z"/>
		<path class="st0" d="M-125.6,149.6c-0.7,0-1.4,0-2.2,0c0-0.8,0-1.4,0-2.2c0.7,0,1.4,0,2.2,0C-125.6,148.1-125.6,148.8-125.6,149.6
			z"/>
		<path class="st0" d="M-106.1,147.4c0,0.8,0,1.4,0,2.2c-0.7,0-1.4,0-2.2,0c0-0.7,0-1.4,0-2.2C-107.6,147.4-107,147.4-106.1,147.4z"
			/>
	</g>
</g>
</svg>
