<?xml version="1.0" encoding="utf-8"?>
<!-- Generator: Adobe Illustrator 19.1.0, SVG Export Plug-In . SVG Version: 6.00 Build 0)  -->
<svg version="1.1" id="Capa_1" xmlns="http://www.w3.org/2000/svg" xmlns:xlink="http://www.w3.org/1999/xlink" x="0px" y="0px"
	 viewBox="98 -98.1 496.1 496.1" style="enable-background:new 98 -98.1 496.1 496.1;" xml:space="preserve">
<style type="text/css">
	.st0{fill:#34C3D6;}
</style>
<g>
	<path class="st0" d="M167.2,317.3c-4.6,0-8.4-3.8-8.4-8.4V-0.6c0-4.6,3.8-8.4,8.4-8.4h215c4.6,0,8.4,3.8,8.4,8.4v156.4
		c10.5-4.6,21.6-7.8,33.2-9.6V-0.6c0-23-18.7-41.6-41.6-41.6H214.6v-14.2c0-4.6,3.8-8.4,8.4-8.4h215c4.6,0,8.4,3.8,8.4,8.4v200.9
		c11.3,0.1,22.4,1.8,33.2,4.8V-56.5c0-23-18.7-41.6-41.7-41.6H223c-23,0-41.6,18.7-41.6,41.6v14.2h-14.2c-23,0-41.7,18.7-41.7,41.6
		v309.5c0,23,18.7,41.6,41.7,41.6H330c-6.4-10.3-11.4-21.4-14.9-33.2L167.2,317.3L167.2,317.3z"/>
	<path class="st0" d="M218.1,77.8h86.5c9.2,0,16.6-7.4,16.6-16.6c0-9.2-7.4-16.6-16.6-16.6h-86.5c-9.2,0-16.6,7.4-16.6,16.6
		C201.5,70.4,209,77.8,218.1,77.8z"/>
	<path class="st0" d="M331.2,111.1H218.1c-9.2,0-16.6,7.4-16.6,16.6c0,9.2,7.4,16.6,16.6,16.6h113.1c9.2,0,16.6-7.4,16.6-16.6
		C347.9,118.5,340.4,111.1,331.2,111.1z"/>
	<path class="st0" d="M346.2,187.3c-2.6-5.7-8.3-9.7-15-9.7H218.1c-9.2,0-16.6,7.4-16.6,16.6c0,9.2,7.4,16.6,16.6,16.6h110.4
		C333.6,202.4,339.5,194.5,346.2,187.3z"/>
	<path class="st0" d="M201.5,260.8c0,9.2,7.4,16.6,16.6,16.6h91.6c0.2-11.5,1.9-22.6,4.7-33.2h-96.4
		C209,244.1,201.5,251.6,201.5,260.8z"/>
	<path class="st0" d="M534.3,256.7c1.9,7.3,3,15,3,22.9c0,51-41.5,92.6-92.6,92.6c-51,0-92.6-41.5-92.6-92.6
		c0-51.1,41.5-92.6,92.6-92.6c13,0,25.4,2.7,36.6,7.6l13.8-22.1c-15.3-7.2-32.4-11.4-50.4-11.4c-65.4,0-118.5,53.2-118.5,118.5
		c0,65.3,53.2,118.5,118.5,118.5c65.3,0,118.5-53.2,118.5-118.5c0-18.2-4.2-35.3-11.6-50.7L534.3,256.7z"/>
	<path class="st0" d="M556.4,147.6c-3.6-2.2-7.5-3.3-11.4-3.3c-7.2,0-14.3,3.6-18.4,10.2l-85.9,138.1l-28.8-41.1
		c-4.2-6-10.9-9.2-17.7-9.2c-4.3,0-8.6,1.3-12.4,3.9c-9.8,6.8-12.1,20.3-5.3,30.1l47.5,67.8c4.1,5.8,10.7,9.2,17.7,9.2
		c0.2,0,0.4,0,0.6,0c7.3-0.2,13.9-4,17.8-10.2l103.2-165.8C569.7,167.2,566.6,153.9,556.4,147.6z"/>
</g>
</svg>
