<svg xmlns="http://www.w3.org/2000/svg" viewBox="0 0 92 92"><title>question58</title><path d="M45.39,0A46,46,0,1,0,92,45.38,46,46,0,0,0,45.39,0ZM45.25,74H45a6.7,6.7,0,0,1,.16-13.39h0.23A6.7,6.7,0,1,1,45.25,74ZM61.71,41.34a30.41,30.41,0,0,1-5.49,4.92l-2.81,1.94a7.63,7.63,0,0,0-2.82,3.43,7.11,7.11,0,0,0-.43,2.88V55H39.43l0-.91c0.13-3.73.22-5.92,1.77-7.73,2.42-2.85,7.77-6.29,8-6.44a8.44,8.44,0,0,0,1.89-1.94,6.81,6.81,0,0,0,1.62-4,7.74,7.74,0,0,0-1.47-4.58c-0.94-1.32-2.72-2-5.3-2s-4.31.81-5.36,2.48A10,10,0,0,0,39,35.24v0.46H27.94l0-.48c0.28-6.77,2.7-11.64,7.18-14.49A18.9,18.9,0,0,1,45.53,18c5.35,0,9.86,1.3,13.41,3.86s5.43,6.48,5.43,11.56A13.22,13.22,0,0,1,61.71,41.34Z" transform="translate(0 0)" fill="#b0b0bd"/></svg>