<?xml version="1.0" encoding="utf-8"?>
<!-- Generator: Adobe Illustrator 19.1.0, SVG Export Plug-In . SVG Version: 6.00 Build 0)  -->
<svg version="1.1" id="圖層_1" xmlns="http://www.w3.org/2000/svg" xmlns:xlink="http://www.w3.org/1999/xlink" x="0px" y="0px"
	 viewBox="-133 135 32 32" style="enable-background:new -133 135 32 32;" xml:space="preserve">
<style type="text/css">
	.st0{fill:#F1F1F1;}
	.st1{fill:#CBCBCB;}
</style>
<g>
	<path class="st0" d="M-112.9,158c-1.6,1.9-3.3,3.4-5.3,4.3l-0.6-1.3c1.5-0.9,2.9-2,4-3.3s1.6-2.7,1.6-4c0-0.3-0.1-0.5-0.2-0.6
		c-0.2-0.1-0.4-0.2-0.6-0.2c-1.4,0.2-2.2,0.2-2.3,0.2c-0.7,0-1.5-0.3-2.4-0.8s-1.3-1.4-1.3-2.7c0-1.1,0.4-2,1.1-2.8s1.7-1.1,3-1.1
		c1.5,0,2.8,0.6,3.9,1.8s1.6,2.7,1.6,4.5C-110.6,154-111.3,156-112.9,158 M-125.3,158.1c-1.6,1.9-3.4,3.3-5.3,4.2l-0.6-1.3
		c1.5-0.9,2.9-2,4-3.3c1.1-1.3,1.6-2.6,1.6-4c0-0.2-0.1-0.4-0.2-0.6c-0.1-0.2-0.4-0.2-0.7-0.2c-1.4,0.2-2.2,0.2-2.3,0.2
		c-0.8,0-1.6-0.3-2.4-0.9c-0.8-0.6-1.2-1.5-1.2-2.6c0-0.9,0.3-1.8,0.9-2.6c0.6-0.9,1.7-1.3,3.2-1.3c1.6,0,2.9,0.6,3.9,1.8
		s1.5,2.6,1.5,4.2C-122.8,154-123.6,156.1-125.3,158.1"/>
	<polygon class="st1" points="-118.8,156.9 -101.6,156.9 -101.6,156.9 -101.6,156.9 -101.6,139.7 -102.1,139.7 -102.1,156.4 
		-118.8,156.4 	"/>
</g>
</svg>
