<svg xmlns="http://www.w3.org/2000/svg" viewBox="0 0 45 45"><title>hk</title><circle cx="22.5" cy="22.5" r="22.5" fill="#ed5565"/><path d="M30.6,22.6c-2.9.9-4.7-4.4-7.8-.7,0,0-.2-4,4.9-5.6,4.9-1.6,8.3,3.8,8.7,5.2C33.4,19.7,32.9,21.8,30.6,22.6Zm-5.7-7.1c0,3.1-5.6,3.1-3.1,7.2,0,0-3.9-1.1-3.9-6.4s6.2-6.6,7.7-6.6C23,11.9,24.9,13.1,24.9,15.5Zm-2.6,8.3s-2.2,3.3-7.3,1.7c-4.9-1.6-4.5-7.9-4-9.3,1.4,3.3,3.1,1.8,5.4,2.5C19.3,19.6,17.6,25,22.3,23.8Zm-5.5,3.9c1.8-2.5,6.4.8,6.7-4,0,0,2.5,3.1-.7,7.4-3,4.2-8.9,1.8-10.2.9C16.2,31.8,15.4,29.7,16.8,27.7Zm7-5.2s3.8-1.4,6.9,2.9-1.1,9-2.3,9.9c0.8-3.4-1.4-3.3-2.9-5.2C23.7,27.7,28.3,24.4,23.8,22.5Z" fill="#fff"/></svg>